<svg version="1.1" xmlns="http://www.w3.org/2000/svg" xmlns:xlink="http://www.w3.org/1999/xlink" x="0px" y="0px"
	 width="50px" height="50px" viewBox="0 0 50 50">
<path fill-rule="evenodd" clip-rule="evenodd" d="M34.875,7.093c-1.13,1.824-4.223,1.423-4.777,4.022
	c-0.826,3.859,0.934,8.107,0.503,12.319c-0.616,6.007-4.087,8.159-7.543,11.566c4.665-1.474,12.201-1.584,15.085,1.508
	c1.337,0.463,1.303-2.139,2.012-0.754c0.571,0.759-1.141,1.912-2.012,2.766c-1.021,1.002-2.178,2.024-3.017,2.766
	C30.28,36.5,19.403,38.22,13.502,40.532c3.096-2.563,9.788-10.744,1.257-12.32c0.592-1.168,2.483-1.037,4.274-1.006
	c-0.256-3.012-2.752-3.785-5.782-4.022c0.511-2.003,3.176-1.852,5.279-2.263c-0.699-4.25,1.111-7.857,3.269-10.057
	c-2.742,2.109-6.644-0.687-9.303,0c-1.561,0.403-1.002,1.792-2.766,2.011c0.558-3.911,2.358-5.641,5.28-6.034
	c3.917-0.527,8.519,3.314,11.818,0.252c0.501,1.105-2.206,2.495-2.766,3.771c-1.948,4.437,0.533,10.856-0.252,16.595
	c-0.648,4.742-3.305,6.595-4.776,9.805c3.49-2.651,6.412-5.166,7.041-11.063c0.676-6.357-2.124-12.427,0.754-16.594
	C28.107,7.755,31.673,5.893,34.875,7.093z"/>
</svg>
